# xmcd
#
# Track frame offsets:
#	150
#	19095
#	32537
#	53180
#	80697
#	111832
#	133544
#	149897
#	168949
#	195397
#	217392
#	236874
#	276010
#
# Disc length: 3919 seconds
#
# Revision: 0
# Processed by: cddbd v1.5.1PL0 Copyright (c) Steve Scherf et al.
# Submitted via: dBpowerAMP V4.0
#
DISCID=c30f4d0d
DTITLE=Wu-Tang Clan - Enter The Wu-Tang
DYEAR=1900
DGENRE=Rap
TTITLE0=Bring Da Ruckus
TTITLE1=Shame On A Nigga
TTITLE2=Clan In Da Front
TTITLE3=Wu-Tang: 7th Chamber
TTITLE4=Can It Be All So Simple
TTITLE5=Intermission
TTITLE6=Da Mystery Of Chessboxin'
TTITLE7=Wu-Tang Clan Ain't Nuthing Ta F' Wit
TTITLE8=C.R.E.A.M.
TTITLE9=Method Man
TTITLE10=Protect Ya Neck
TTITLE11=Tearz
TTITLE12=Wu-Tang: 7th Chamber - Part II
EXTD=
EXTT0=
EXTT1=
EXTT2=
EXTT3=
EXTT4=
EXTT5=
EXTT6=
EXTT7=
EXTT8=
EXTT9=
EXTT10=
EXTT11=
EXTT12=
PLAYORDER=
